<svg width="42" height="30" viewBox="0 0 42 30" fill="none" xmlns="http://www.w3.org/2000/svg">
<path d="M41.3438 27.5625C41.3438 28.2844 40.7531 28.875 40.0312 28.875H1.96875C1.24688 28.875 0.65625 28.2844 0.65625 27.5625V1.96875C0.65625 1.24687 1.24688 0.65625 1.96875 0.65625H40.0312C40.7531 0.65625 41.3438 1.24687 41.3438 1.96875V27.5625Z" fill="#BDBDBD"/>
<path d="M40.0312 29.5312H1.96875C0.853125 29.5312 0 28.6781 0 27.5625V1.96875C0 0.853125 0.853125 0 1.96875 0H40.0312C41.1469 0 42 0.853125 42 1.96875V27.5625C42 28.6781 41.1469 29.5312 40.0312 29.5312ZM1.96875 1.3125C1.575 1.3125 1.3125 1.575 1.3125 1.96875V27.5625C1.3125 27.9563 1.575 28.2188 1.96875 28.2188H40.0312C40.425 28.2188 40.6875 27.9563 40.6875 27.5625V1.96875C40.6875 1.575 40.425 1.3125 40.0312 1.3125H1.96875Z" fill="#0D6C08"/>
<path d="M21.032 24.9296C21.847 25.9892 22.3056 27.875 20.9688 27.875H5.21875C3.88194 27.875 4.3405 25.9892 5.15548 24.9296C7.53839 21.8313 12.5459 15.4062 13.0938 15.4062C13.6416 15.4062 18.6491 21.8313 21.032 24.9296Z" fill="#656565"/>
<path d="M20.9688 28.5312H5.21875C4.10312 28.5312 3.25 27.6781 3.25 26.5625C3.25 26.4341 3.288 26.3086 3.35921 26.2018L3.38125 26.1687C12.0437 14.75 12.7 14.75 13.0938 14.75C13.4875 14.75 14.1437 14.75 22.8062 26.1687L22.8283 26.2018C22.8995 26.3086 22.9375 26.4341 22.9375 26.5625C22.9375 27.6781 22.0844 28.5312 20.9688 28.5312ZM4.85616 26.3767C4.67046 26.6185 4.58819 26.978 4.85424 27.1268C4.95828 27.185 5.08289 27.2188 5.21875 27.2188H20.9688C21.05 27.2188 21.1232 27.2067 21.1893 27.1845C21.5521 27.0631 21.478 26.5675 21.2448 26.2641C18.6742 22.9194 15.3741 18.7088 13.7432 16.8799C13.3896 16.4833 12.7979 16.4833 12.4443 16.8798C10.7951 18.7294 7.43885 23.0144 4.85616 26.3767Z" fill="#231C1C"/>
<path d="M37.4653 23.4588C38.6904 25.046 39.38 27.875 37.375 27.875H14.0781C12.0731 27.875 12.7628 25.046 13.9872 23.4583C17.5258 18.8698 24.8991 9.43433 25.6937 9.43433C26.5381 9.43433 33.9239 18.8705 37.4653 23.4588Z" fill="#656565"/>
<path d="M37.375 28.5312H14.0781C12.6344 28.5312 11.4531 27.35 11.4531 25.9062C11.4531 25.7778 11.4911 25.6523 11.5623 25.5455L11.5844 25.5125C24.3156 8.77808 25.3 8.77808 25.6937 8.77808C26.0875 8.77808 27.0719 8.77808 39.8031 25.5125L39.8252 25.5455C39.8964 25.6523 39.9344 25.7778 39.9344 25.9062C40 27.35 38.8188 28.5312 37.375 28.5312ZM13.0755 25.7845C12.9185 25.9892 12.8314 26.2556 12.9487 26.4853C13.1618 26.9028 13.6199 27.2187 14.0781 27.2187H37.375C37.8958 27.2187 38.334 26.9293 38.5255 26.4818C38.6247 26.25 38.5377 25.9918 38.3854 25.7909C33.6923 19.6013 28.4527 12.9856 26.3688 10.7608C26.0297 10.3988 25.489 10.3988 25.1499 10.7608C23.0661 12.9847 17.8234 19.5967 13.0755 25.7845Z" fill="#231C1C"/>
<path d="M7.21875 7.875C7.21875 8.57119 7.49531 9.23887 7.98759 9.73116C8.47988 10.2234 9.14756 10.5 9.84375 10.5C10.5399 10.5 11.2076 10.2234 11.6999 9.73116C12.1922 9.23887 12.4687 8.57119 12.4687 7.875C12.4687 7.17881 12.1922 6.51113 11.6999 6.01884C11.2076 5.52656 10.5399 5.25 9.84375 5.25C9.14756 5.25 8.47988 5.52656 7.98759 6.01884C7.49531 6.51113 7.21875 7.17881 7.21875 7.875Z" fill="#AFB832"/>
<path opacity="0.36" d="M9.84375 11.1562C8.00625 11.1562 6.5625 9.7125 6.5625 7.875C6.5625 6.0375 8.00625 4.59375 9.84375 4.59375C11.6813 4.59375 13.125 6.0375 13.125 7.875C13.125 9.7125 11.6813 11.1562 9.84375 11.1562ZM9.84375 5.90625C8.72813 5.90625 7.875 6.75938 7.875 7.875C7.875 8.99062 8.72813 9.84375 9.84375 9.84375C10.9594 9.84375 11.8125 8.99062 11.8125 7.875C11.8125 6.75938 10.9594 5.90625 9.84375 5.90625Z" fill="#A3CE3D"/>
</svg>
